<?xml version="1.0" encoding="utf-8"?>
<!-- Generator: Adobe Illustrator 27.5.0, SVG Export Plug-In . SVG Version: 6.00 Build 0)  -->
<svg version="1.1" xmlns="http://www.w3.org/2000/svg" xmlns:xlink="http://www.w3.org/1999/xlink" x="0px" y="0px"
	 viewBox="0 0 500 500" style="enable-background:new 0 0 500 500;" xml:space="preserve">
<g id="BACKGROUND">
	<rect style="fill:#FFE5FF;" width="500" height="500"/>
</g>
<g id="OBJECTS">
	<g>
		<path style="fill:#966BFD;" d="M119.057,440.419c0,0-94.638-59.871-87.412-117.677c7.226-57.806,53.161-63.484,64.516-94.452
			c11.355-30.968,4.645-30.452-9.29-58.839s-4.645-42.839,36.645-64C164.807,84.29,244.29,49.71,307.774,53.323
			s142.968,9.806,142.968,62.968s-60.903,93.936-71.226,112s5.677,37.677,41.807,56.774c36.129,19.097,53.161,52.129,46.968,83.613
			c-6.193,31.484-37.048,62.452-51.242,71.742H119.057z"/>
		<g>
			<defs>
				<path id="SVGID_1_" d="M119.057,440.419c0,0-94.638-59.871-87.412-117.677c7.226-57.806,53.161-63.484,64.516-94.452
					c11.355-30.968,4.645-30.452-9.29-58.839s-4.645-42.839,36.645-64C164.807,84.29,244.29,49.71,307.774,53.323
					s142.968,9.806,142.968,62.968s-60.903,93.936-71.226,112s5.677,37.677,41.807,56.774
					c36.129,19.097,53.161,52.129,46.968,83.613c-6.193,31.484-37.048,62.452-51.242,71.742H119.057z"/>
			</defs>
			<clipPath id="SVGID_00000010988841148196849390000004188487167835877805_">
				<use xlink:href="#SVGID_1_"  style="overflow:visible;"/>
			</clipPath>
			<g style="clip-path:url(#SVGID_00000010988841148196849390000004188487167835877805_);">
				<rect x="311.078" y="127.191" style="fill:#572FBD;" width="137.083" height="160.518"/>
				<g>
					<rect x="299.129" y="280.048" style="fill:#AD89FE;" width="152.516" height="10.291"/>
					<rect x="299.129" y="125.581" style="fill:#AD89FE;" width="152.516" height="10.291"/>
					<rect x="308.419" y="133.149" style="fill:#AD89FE;" width="7.742" height="146.899"/>
				</g>
				<g>
					<rect x="297.451" y="131.703" style="fill:#FFFFFF;" width="157.936" height="0.4"/>
				</g>
				<g>
					<rect x="320.677" y="137.124" style="fill:#F1CF6D;" width="127.484" height="5.94"/>
					<rect x="320.677" y="148.286" style="fill:#F1CF6D;" width="127.484" height="5.94"/>
					<rect x="320.677" y="159.447" style="fill:#F1CF6D;" width="127.484" height="5.94"/>
					<rect x="320.677" y="170.608" style="fill:#F1CF6D;" width="127.484" height="5.94"/>
					<rect x="320.677" y="181.769" style="fill:#F1CF6D;" width="127.484" height="5.94"/>
					<rect x="320.677" y="192.931" style="fill:#F1CF6D;" width="127.484" height="5.94"/>
					<rect x="320.677" y="204.092" style="fill:#F1CF6D;" width="127.484" height="5.94"/>
					<rect x="320.677" y="215.253" style="fill:#F1CF6D;" width="127.484" height="5.94"/>
					
						<rect x="320.677" y="226.415" transform="matrix(0.9981 0.0609 -0.0609 0.9981 14.671 -22.9677)" style="fill:#F1CF6D;" width="127.484" height="5.94"/>
				</g>
				<g>
					<g>
						<rect x="320.477" y="131.903" style="fill:#FFFFFF;" width="0.4" height="175.138"/>
					</g>
					<path style="fill:#FFFFFF;" d="M320.677,307.041c0,0-2.096,7.7-1.946,7.905c0.633,0.871,3.259,0.871,3.893,0
						C322.773,314.74,320.677,307.041,320.677,307.041z"/>
				</g>
			</g>
			<g style="clip-path:url(#SVGID_00000010988841148196849390000004188487167835877805_);">
				<g>
					<polygon style="fill:#AD89FE;" points="9.968,352.759 481.452,400.161 452.806,440.419 37.064,440.419 					"/>
				</g>
				<polygon style="fill:#AD89FE;" points="13.581,327.903 270.439,352.177 31.251,266.226 				"/>
				<path style="fill:#AD89FE;" d="M69.323,141.193l292.232-90.968l-135.22-6.71C226.334,43.516,94.097,91.774,69.323,141.193z"/>
				<polygon style="fill:#AD89FE;" points="307.135,306.484 465.71,309.581 480.677,360.935 				"/>
			</g>
		</g>
		<rect x="37.064" y="440.419" style="fill:#323DBB;" width="415.742" height="2.484"/>
		<g>
			<circle style="fill:#5D30BF;" cx="175.694" cy="133.149" r="22.839"/>
			<circle style="fill:#AD89FE;" cx="173.484" cy="131.903" r="22.839"/>
			
				<ellipse transform="matrix(0.7071 -0.7071 0.7071 0.7071 -42.4572 161.3056)" style="fill:#FFFFFF;" cx="173.484" cy="131.903" rx="21.145" ry="21.145"/>
			
				<ellipse transform="matrix(0.7071 -0.7071 0.7071 0.7071 -42.4572 161.3056)" style="fill:#FFFFFF;" cx="173.484" cy="131.903" rx="21.145" ry="21.145"/>
			<path style="fill:#F9E5E4;" d="M153.291,132.548c0-11.678,9.467-21.145,21.145-21.145c4.182,0,8.069,1.23,11.35,3.324
				c-3.468-2.488-7.707-3.969-12.301-3.969c-11.678,0-21.145,9.467-21.145,21.145c0,7.496,3.912,14.065,9.794,17.82
				C156.787,145.886,153.291,139.632,153.291,132.548z"/>
			<polygon style="fill:#5D30BF;" points="173.484,115.129 172.557,131.491 164.806,139.253 174.099,132.629 174.436,131.903 			"/>
		</g>
		<g>
			<rect x="210.422" y="195.463" style="fill:#FF8584;" width="12.968" height="19.548"/>
			<g>
				<path style="fill:#572FBD;" d="M207.613,201.032h-14.968v-21.548h14.968V201.032z M194.645,199.032h10.968v-17.548h-10.968
					V199.032z"/>
			</g>
			<g>
				<path style="fill:#572FBD;" d="M207.613,231.572h-14.968v-21.548h14.968V231.572z M194.645,229.572h10.968v-17.548h-10.968
					V229.572z"/>
			</g>
			<g>
				<path style="fill:#572FBD;" d="M224.39,216.012h-14.967v-21.549h14.967V216.012z M211.422,214.012h10.967v-17.549h-10.967
					V214.012z"/>
			</g>
		</g>
	</g>
	<g>
		<path style="fill:#FFFFFF;" d="M409.733,251.688l-0.108-0.224l-0.195,0.153c-11.966,9.351-14.024,20.008-13.646,27.301
			c0.402,7.733,3.555,13.409,3.718,13.697c-3.772,26.692-4.843,54.07-4.86,54.506l0.4,0.016c0.016-0.436,1.089-27.856,4.864-54.54
			C419.17,272.046,409.83,251.889,409.733,251.688z M400.007,291.893c2.188-15.261,5.265-30.195,9.542-39.621
			C410.736,255.175,417.091,273.286,400.007,291.893z M396.183,278.88c-0.363-7.055,1.612-17.302,12.839-26.41
			c-4.216,9.498-7.257,24.333-9.423,39.472C398.812,290.392,396.517,285.364,396.183,278.88z"/>
		<path style="fill:#FFFFFF;" d="M460.568,255.743c-10.314-1.027-18.273,1.079-23.654,6.266c-8.049,7.759-7.438,19.875-7.422,20.143
			c-8.283,10.338-13.982,21.084-17.805,30.111c-8.047,19.002-9.772,34.689-9.789,34.846l0.398,0.041
			c0.017-0.155,1.737-15.793,9.765-34.743c3.821-9.02,9.522-19.762,17.812-30.09c15.907-2.856,23.457-9.843,26.986-15.213
			c3.846-5.85,3.891-11.108,3.891-11.161v-0.181L460.568,255.743z M437.191,262.297c4.42-4.261,10.623-6.407,18.485-6.407
			c1.353,0,2.763,0.073,4.214,0.2c-12.546,7.075-22.367,16.141-30.013,25.581C429.843,279.427,430.09,269.143,437.191,262.297z
			 M456.524,266.884c-3.452,5.252-10.815,12.069-26.265,14.951c7.658-9.435,17.497-18.493,30.073-25.538
			C460.252,257.547,459.741,261.99,456.524,266.884z"/>
		<path style="fill:#FFFFFF;" d="M388.361,345.148c-0.051-0.219-2.832-12.154-8.167-26.379c2.517-10.895,1.502-19.634-3.018-25.973
			c-5.936-8.324-15.984-9.468-16.086-9.478l-0.185-0.02l-0.032,0.184c-2.514,14.331,2.802,23.207,7.704,28.13
			c4.911,4.933,10.395,6.982,11.237,7.278c5.328,14.203,8.107,26.129,8.157,26.348L388.361,345.148z M376.852,293.032
			c4.365,6.125,5.397,14.552,3.082,25.048c-4.442-11.723-10.601-24.882-18.38-34.289
			C363.644,284.138,371.779,285.914,376.852,293.032z M368.848,311.318c-4.779-4.804-9.947-13.436-7.649-27.33
			c7.81,9.421,13.986,22.65,18.43,34.408C378.178,317.848,373.276,315.771,368.848,311.318z"/>
		<path style="fill:#323DBB;" d="M423.387,396.774c-8.516-24.097-21.443-37.226-12.85-44.597l3.56-9.306h-18.968h-18.968l3.56,9.306
			c8.592,7.371-4.334,20.5-12.85,44.597c-8.516,24.097,6.968,43.645,6.968,43.645h21.29h21.29
			C416.419,440.419,431.903,420.871,423.387,396.774z"/>
		<path style="fill:#131747;" d="M422.226,400.548c-2.323-10.065-16.839-36.774-16.46-42c0.379-5.226,4.77-6.371,4.77-6.371
			l-21.021,0.952l7.419,1.532c0,0-3.935,24.597-9.354,47.629c-4.213,17.906-0.707,32.512,1.064,38.129h26.162
			C422.476,426.828,424.413,410.027,422.226,400.548z"/>
		<path style="fill:#FFFFFF;" d="M420.933,390.371h-51.608c-0.135,0.329-0.269,0.667-0.404,1h52.415
			C421.202,391.038,421.068,390.7,420.933,390.371z M365.21,420.532h59.838c0.066-0.332,0.133-0.662,0.192-1h-60.223
			C365.077,419.87,365.144,420.2,365.21,420.532z M364.464,415.146c0.027,0.336,0.056,0.669,0.089,1h61.152
			c0.034-0.331,0.062-0.664,0.089-1H364.464z M414.667,376.761h-39.076c-0.163,0.33-0.327,0.663-0.492,1h40.06
			C414.993,377.424,414.83,377.091,414.667,376.761z M376.44,384.489c1.264-1.454,2.457-2.828,4.836-2.828
			c2.38,0,3.574,1.374,4.839,2.828c1.355,1.56,2.757,3.172,5.593,3.172c2.836,0,4.238-1.612,5.594-3.172
			c1.265-1.454,2.46-2.828,4.841-2.828c2.38,0,3.574,1.374,4.839,2.828c1.355,1.56,2.757,3.172,5.593,3.172
			c2.838,0,4.24-1.612,5.597-3.172c0.044-0.05,0.087-0.099,0.131-0.149c-0.154-0.335-0.307-0.66-0.461-0.99
			c-0.142,0.16-0.284,0.321-0.424,0.483c-1.266,1.454-2.461,2.828-4.843,2.828c-2.38,0-3.574-1.374-4.839-2.828
			c-1.355-1.56-2.757-3.172-5.593-3.172c-2.837,0-4.239,1.612-5.595,3.172c-1.265,1.454-2.459,2.828-4.84,2.828
			c-2.38,0-3.574-1.374-4.839-2.828c-1.355-1.56-2.757-3.172-5.593-3.172c-2.835,0-4.236,1.612-5.591,3.172
			c-1.252,1.44-2.438,2.796-4.771,2.823c-0.143,0.323-0.286,0.651-0.428,0.979c0.122,0.007,0.233,0.026,0.361,0.026
			C373.683,387.661,375.085,386.049,376.44,384.489z"/>
	</g>
	<g>
		<g>
			<rect x="234.29" y="315.645" style="fill:#FFFFFF;" width="2.71" height="108.903"/>
			<path style="fill:#201816;" d="M236.419,426.161c0,0,7.29,1.742,10.258,6.581c2.968,4.839,4.256,7.677,6.87,7.677h2.743
				l0.839-1.871c0,0-2.387,0.129-3.226-0.129c-0.839-0.258-3.871-4.129-5.484-8.194s-7.161-7.815-11.419-7.622L236.419,426.161z"/>
			<path style="fill:#201816;" d="M235.064,426.161c0,0-7.29,1.742-10.258,6.581c-2.968,4.839-4.256,7.677-6.87,7.677h-2.743
				l-0.839-1.871c0,0,2.387,0.129,3.226-0.129c0.839-0.258,3.871-4.129,5.484-8.194s7.161-7.815,11.419-7.622L235.064,426.161z"/>
			<path style="fill:#201816;" d="M238.016,424.548c0,1.309-1.062,2.371-2.371,2.371c-1.309,0-2.371-1.062-2.371-2.371
				c0-1.31,1.061-2.371,2.371-2.371C236.955,422.177,238.016,423.239,238.016,424.548z"/>
			<rect x="184.251" y="303.387" style="fill:#F1CF6D;" width="105.974" height="6.194"/>
			<rect x="184.251" y="303.387" style="fill:#FF848F;" width="30.065" height="6.194"/>
			<polygon style="fill:#201816;" points="235.645,309.581 227.645,309.581 230.484,315.645 235.645,315.645 240.806,315.645 
				243.645,309.581 			"/>
		</g>
		<g>
			<path style="fill:#FFFFFF;" d="M246.871,260.931c0,0-5.516,11.004-1.258,15.746c0,0,0.29-7.888,1.839-11.783
				c1.548-3.895,1.258-7.185-0.581-9.121C246.871,255.774,247.627,259.234,246.871,260.931z"/>
			<path style="fill:#FFFFFF;" d="M249.29,267.581c0,0-1.645,9.677,0,13.258C249.29,280.839,251.516,272.323,249.29,267.581z"/>
			<g>
				<rect x="240.677" y="285.94" style="fill:#FFFFFF;" width="13.548" height="17.447"/>
				<rect x="241.645" y="286.935" style="fill:#F9E5E4;" width="3.581" height="16.452"/>
			</g>
		</g>
	</g>
	<g>
		<g>
			<polygon style="fill:#FF8584;" points="110.594,350.935 84.855,275.828 135.679,275.828 161.418,350.935 			"/>
			<g>
				<g>
					
						<rect x="106.773" y="268.895" transform="matrix(0.946 -0.3242 0.3242 0.946 -95.1186 51.5895)" style="fill:#FBC875;" width="1" height="84.748"/>
				</g>
				<g>
					
						<rect x="122.875" y="268.895" transform="matrix(0.946 -0.3242 0.3242 0.946 -94.249 56.8097)" style="fill:#FBC875;" width="1" height="84.748"/>
				</g>
				<g>
					
						<rect x="138.977" y="268.895" transform="matrix(0.946 -0.3242 0.3242 0.946 -93.3793 62.0299)" style="fill:#FBC875;" width="1" height="84.748"/>
				</g>
			</g>
			<g>
				<polygon style="fill:#F9E5E4;" points="177.551,440.419 150.196,350.935 147.817,351.65 174.953,440.419 				"/>
				<rect x="110.594" y="350.935" style="fill:#FFFFFF;" width="88.354" height="2.484"/>
				<polygon style="fill:#FFFFFF;" points="85.837,440.419 112.973,351.65 110.594,350.935 83.24,440.419 				"/>
				<polygon style="fill:#FFFFFF;" points="226.303,440.419 198.948,350.935 196.569,351.65 223.705,440.419 				"/>
			</g>
		</g>
		<g>
			<path style="fill:#1E1007;" d="M158.728,204.599c0,0,1.325,5.417,2.089,7.739c0.764,2.323-5.914,10.601-5.914,10.601
				l1.419-16.149L158.728,204.599z"/>
			<path style="fill:#1E1007;" d="M142.231,194.811c0,0-10.909,0.883-14.006,8.238c-3.097,7.355-6.387,15.677-11.613,23.032
				c-5.226,7.355-17.032,18.968-19.161,34.065c-2.129,15.097,1.742,39.29,1.742,39.29l52.065-9.097c0,0,0.387-35.226,2.322-41.226
				c1.936-6,1.742-15.484-0.968-23.032S142.231,194.811,142.231,194.811z"/>
			<path style="fill:#FD9A9F;" d="M189.777,285.228c0,0-1.784-2.526-2.632-2.698c-0.848-0.172-2.893-0.322-2.893-0.322l2.346,4.98
				L189.777,285.228z"/>
			<path style="fill:#FFFFFF;" d="M145.258,241.952c0,0,14.903,8.323,16.71,10.258c1.807,1.936,5.419,28.645,5.419,28.645
				l-15.355,1.29L145.258,241.952z"/>
			<path style="fill:#FAD2D0;" d="M153.968,268.855l12.254,3.927c-0.63-4.165-1.44-9.202-2.235-13.268l-15.438-12.917
				L153.968,268.855z"/>
			<path style="fill:#FFFFFF;" d="M163.26,268.278c-0.97,5.8-9.1,23.22-9.1,23.22l4.84,24.97c0,0-34.84,4.26-44.13,4.06
				c0,0,7.16-22.45,6.78-23.42l-16.46-45.48c0,0,2.07-1.08,2.91-1.6c4.25-2.67,12.75-6.74,17.29-7.72c0.32-0.07,0.62-0.12,0.9-0.16
				c0,0,12.17-0.14,17.09-0.18c0.93-0.01,1.6-0.02,1.88-0.02C145.26,241.948,164.23,262.468,163.26,268.278z"/>
			<path style="fill:#FAD2D0;" d="M141.19,253.368c0,0-2.84-0.26-7.61-1.67c-3.82-1.14-7.06-7.07-8.19-9.39
				c0.32-0.07,0.62-0.12,0.9-0.16c0,0,12.17-0.14,17.09-0.18C144.04,248.228,141.19,253.368,141.19,253.368z"/>
			<path style="fill:#F9E5E4;" d="M156.309,302.583l-2.148-11.083c0,0,3.935-8.434,6.656-15.521l-3.946,1.973l-11.032,9.29
				l6.581-9.29l-18.968,0.968l-20.129-8.903l-2.728-3.456l11.051,30.553c0.291,0.726-3.671,13.553-5.665,19.909L156.309,302.583z"/>
			<path style="fill:#FFFFFF;" d="M105.193,251.629c-2.129,4.645-8.322,54.194-8.322,54.194c4.258-3.097,20.129-6.194,20.129-6.194
				s0.581-33.29-3.29-39.677C109.839,253.564,105.193,251.629,105.193,251.629L105.193,251.629z"/>
			<path style="fill:#FD9A9F;" d="M152.161,288.21c0,0,3.355-2.968,3.742-3.226c0.387-0.258,2.581-1.032,2.581-1.032l-1.677,5.032
				L152.161,288.21z"/>
			<polygon style="fill:#1E1007;" points="179.671,305.799 194.871,263.653 165.31,263.653 150.11,305.799 			"/>
			<path style="fill:#FAD2D0;" d="M101.581,303.306c0,0,2.968,8,4,8.903c1.032,0.903,36-11.097,45.807-17.161
				c0,0,9.548,2.839,10.839,2.839s6.968-4,6.968-5.032c0-1.032-1.806-4.129-1.806-4.129l-5.29-1.677l-8.903,0.774
				C153.193,287.823,116.032,299.952,101.581,303.306z"/>
			<path style="fill:#FAD2D0;" d="M178.9,296.181l-0.808-5.595l1.917-2.923l9.767-2.435c0,0-0.277,5.287-0.492,6.348
				c-0.215,1.06-1.928,3.628-1.928,3.628S180.529,296.644,178.9,296.181z"/>
			<polygon style="fill:#FAD2D0;" points="126.287,242.135 132.557,232.208 142.231,234.8 138.862,246.409 			"/>
			<path style="fill:#FD9A9F;" d="M140.078,242.219l-1.056,3.637c0,0-4.634-4.563-5.618-5.298c-0.985-0.736-1.549-7.239-1.549-7.239
				l0.702-1.112l9.674,2.593L140.078,242.219z"/>
			<g>
				<path style="fill:#F7C77B;" d="M152.303,254.657c0.113-0.025,0.225-0.02,0.338,0.015c0.019,0.005,0.031,0.022,0.049,0.028
					l0.104-0.176c-0.045-0.027-4.544-2.74-4.046-7.909c0.689-7.149,0.674-11.88-0.046-14.462l-0.386,0.107
					c0.697,2.499,0.708,7.315,0.034,14.316c-0.444,4.614,2.9,7.354,3.935,8.085C152.291,254.662,152.297,254.657,152.303,254.657z"
					/>
			</g>
			<path style="fill:#FAD2D0;" d="M132.032,223.822c0,0-1.29,7.613,0.516,11.871c1.806,4.258,5.806,7.226,5.806,7.226
				s10.581-4,12.516-7.742c1.936-3.742,3.871-10.839,4.645-15.226c0.774-4.387,3.226-9.29-1.677-10.839
				c-4.903-1.548-12.387-3.226-15.226,0.258S133.193,217.5,132.032,223.822z"/>
			<path style="fill:#FAD2D0;" d="M134.35,219.438l-2.19,6.32c0,0-5.68-6.45-3.22-8.26c1.26-0.93,2.66-0.38,3.72,0.36
				C133.66,218.558,134.35,219.438,134.35,219.438z"/>
			<path style="fill:#1E1007;" d="M159,208.728c-0.26,4.38-8.39,10.19-14.97,13.29c-6.58,3.09-9.68-2.58-9.68-2.58
				s-0.69-0.88-1.69-1.58c-2.49-4.85,1.3-18.43,4.53-20.87c3.75-2.84,7.1-2.71,13.81-1.42
				C157.71,196.858,159.26,204.338,159,208.728z"/>
			<g>
				<path style="fill:#F7C77B;" d="M170.89,263.648c0.53-3.39-0.61-4.77-1.66-5.32c-2.44-1.3-6.81-1.97-11.43-2.68
					c-5.28-0.82-10.74-1.66-14.13-3.52c-5.93-3.27-12.07-6.66-12.87-28.94l0.4-0.02c0.79,22.06,6.83,25.39,12.67,28.61
					c3.32,1.83,8.75,2.66,13.99,3.47c4.66,0.72,9.05,1.4,11.55,2.72c1.17,0.62,2.43,2.11,1.87,5.68H170.89z"/>
			</g>
			
				<rect x="155.663" y="254.676" transform="matrix(0.9924 0.1227 -0.1227 0.9924 32.4963 -17.313)" style="fill:#F7C77B;" width="2.342" height="1.091"/>
			<ellipse style="fill:#F7C77B;" cx="131" cy="222.322" rx="0.895" ry="1.403"/>
			<path style="fill:#323DBB;" d="M114.87,320.528c0,0-4.773,8.714-1.677,16.972c3.097,8.258,6.832,12.645,13.093,12.645
				c6.262,0,64.842-16.516,64.842-16.516s18.323,26.323,29.936,30.968s31.226,18.323,36.129,23.484l6.968-2.323
				c0,0-58.064-70.452-60.645-71.742C200.936,312.726,131.514,317.233,114.87,320.528z"/>
			<path style="fill:#131747;" d="M207.645,331.306l-8.879,12.44c6.377,7.953,15.489,18.127,22.298,20.851
				c11.613,4.645,31.226,18.323,36.129,23.484l2.754-0.918L207.645,331.306z"/>
			<path style="fill:#848BD9;" d="M259.733,387.234l0.428-0.143l-63.731-62.122l-0.077-0.074l-0.104,0.022
				c-0.638,0.134-62.746,13.173-72.242,13.172c-0.177,0-0.338-0.005-0.479-0.014c-1.052-0.07-1.911-0.534-2.553-1.379
				c-1.915-2.519-2.028-8.266-0.343-17.092c-0.142,0.02-0.28,0.039-0.419,0.058c-1.679,8.871-1.531,14.679,0.444,17.276
				c0.715,0.94,1.672,1.457,2.845,1.535c7.589,0.508,68.852-12.33,72.724-13.143L259.733,387.234z"/>
			<path style="fill:#323DBB;" d="M126.287,350.145c0,0,34.53,2.323,51.848,0.459c0,0-5.187,15.025-5.645,37.477
				c0,0-1.232,18.323-7.684,32c0,0,7.484,1.032,10.064,1.806c0,0,33.29-87.742,32.774-90.581c-0.516-2.839-8.839,0.178-16.516,2.323
				C191.129,333.629,132.412,349.629,126.287,350.145z"/>
			<path style="fill:#848BD9;" d="M171.596,421.163c5.917-18.007,20.602-62.801,25.634-79.365c1.15-3.82,1.8-6.13,1.71-6.28
				c-0.09-0.13-0.2-0.31-6.07,0.53c-4.19,0.6-11.32,1.71-23.49,3.74c-0.45,0.07-0.89,0.15-1.34,0.22c0,0,0,0-0.01,0
				c-1.3,0.35-2.62,0.71-3.95,1.07c11.04-1.86,22.48-3.73,29.05-4.68c2.76-0.39,4.66-0.62,5.32-0.62c0.04,0,0.08,0,0.11,0.01
				c-0.09,0.54-0.67,2.54-1.62,5.64c-4.568,14.935-17.737,55.31-25.739,79.663C171.334,421.115,171.465,421.139,171.596,421.163z"/>
			<path style="fill:#FFFFFF;" d="M164.807,420.081c0,0-6.581,13.29-6.968,14.258c-0.387,0.968,1.936,4.839,1.936,4.839
				l43.548,1.161c0,0-1.742-4.258-3.097-5.419c-1.355-1.161-14.903-4.71-14.903-4.71l-10.452-8.323L164.807,420.081z"/>
			<path style="fill:#FFFFFF;" d="M257.193,388.081c0,0-3.582,11.347-3.645,12.387c-0.063,1.04,3.193,4.839,3.193,4.839
				l39.839-11.139c0,0-2.994-3.493-4.646-4.169c-1.652-0.676-15.628,0.223-15.628,0.223l-12.146-4.463L257.193,388.081z"/>
			<g>
				<path style="fill:#FFFFFF;" d="M140.613,219.556c0,0,2.908,0.767,7.696-2.548c4.788-3.315,6.557-5.54,6.557-5.54
					S148.936,217.29,140.613,219.556z"/>
				<path style="fill:#FFFFFF;" d="M144.201,211.468c0,0,6.477-0.29,8.993-2.226C153.193,209.242,148.563,210.597,144.201,211.468z"
					/>
			</g>
		</g>
	</g>
	<g>
		<g>
			<g>
				<path style="fill:#FFFFFF;" d="M194.977,255.859l-0.212-0.34l1.695-1.062l0.212,0.34L194.977,255.859z M199.214,253.205
					l-0.212-0.34l1.695-1.062l0.212,0.34L199.214,253.205z M203.452,250.551l-0.212-0.339l1.695-1.061l0.212,0.339L203.452,250.551z
					 M207.689,247.897l-0.212-0.339l1.695-1.062l0.212,0.339L207.689,247.897z M211.927,245.243l-0.212-0.339l1.695-1.061
					l0.212,0.339L211.927,245.243z M216.165,242.589l-0.212-0.339l1.695-1.061l0.212,0.339L216.165,242.589z M220.402,239.935
					l-0.212-0.339l1.695-1.062l0.212,0.339L220.402,239.935z M224.639,237.281l-0.212-0.339l1.695-1.061l0.212,0.339
					L224.639,237.281z M228.877,234.626l-0.212-0.339l1.695-1.061l0.212,0.339L228.877,234.626z M233.114,231.973l-0.212-0.339
					l1.695-1.062l0.212,0.339L233.114,231.973z M237.352,229.319l-0.212-0.339l1.695-1.062l0.212,0.339L237.352,229.319z"/>
			</g>
			<g>
				<path style="fill:#FFFFFF;" d="M275.651,161.193h-0.4v-2h0.4V161.193z M275.651,156.193h-0.4v-2h0.4V156.193z M275.651,151.193
					h-0.4v-2h0.4V151.193z M275.651,146.193h-0.4v-2h0.4V146.193z M275.651,141.193h-0.4v-2h0.4V141.193z M275.651,136.193h-0.4v-2
					h0.4V136.193z M275.651,131.193h-0.4v-2h0.4V131.193z M275.651,126.193h-0.4v-2h0.4V126.193z M275.651,121.193h-0.4v-2h0.4
					V121.193z M275.651,116.193h-0.4v-1.064h0.4V116.193z"/>
			</g>
			<g>
				<path style="fill:#FFFFFF;" d="M307.381,176.706l-0.246-0.316l1.577-1.229l0.246,0.315L307.381,176.706z M311.324,173.632
					l-0.246-0.315l1.577-1.23l0.246,0.315L311.324,173.632z M315.268,170.558l-0.246-0.315l1.577-1.23l0.246,0.315L315.268,170.558z
					 M319.211,167.484l-0.246-0.315l1.577-1.23l0.246,0.315L319.211,167.484z M323.154,164.41l-0.246-0.316l1.577-1.229l0.246,0.316
					L323.154,164.41z M327.098,161.335l-0.246-0.315l1.577-1.23l0.246,0.316L327.098,161.335z M331.041,158.262l-0.246-0.315
					l0.34-0.265l0.246,0.315L331.041,158.262z"/>
			</g>
			<g>
				<path style="fill:#FFFFFF;" d="M322.016,101.128l-1.724-1.014l0.203-0.345l1.724,1.014L322.016,101.128z M317.706,98.593
					l-1.724-1.014l0.203-0.345l1.724,1.014L317.706,98.593z M313.396,96.058l-1.724-1.014l0.203-0.345l1.724,1.014L313.396,96.058z"
					/>
			</g>
		</g>
		<g>
			<g>
				<path style="fill:#FFFFFF;" d="M275.451,240.474c-20.139,0-36.523-16.384-36.523-36.523c0-20.139,16.384-36.523,36.523-36.523
					c20.139,0,36.523,16.384,36.523,36.523C311.975,224.09,295.59,240.474,275.451,240.474z M275.451,167.829
					c-19.918,0-36.122,16.205-36.122,36.123c0,19.918,16.204,36.122,36.122,36.122c19.918,0,36.123-16.205,36.123-36.122
					C311.574,184.033,295.369,167.829,275.451,167.829z"/>
			</g>
			<g>
				<circle style="fill:#FFFFFF;" cx="273.712" cy="202.212" r="34.583"/>
				<g>
					<defs>
						<circle id="SVGID_00000137820324169712782420000007349423332461105086_" cx="273.712" cy="202.212" r="34.583"/>
					</defs>
					<clipPath id="SVGID_00000147208234869056936120000005673660046224714391_">
						<use xlink:href="#SVGID_00000137820324169712782420000007349423332461105086_"  style="overflow:visible;"/>
					</clipPath>
					<g style="clip-path:url(#SVGID_00000147208234869056936120000005673660046224714391_);">
						<path style="fill:#FF848F;" d="M285.673,216.598l8.272,2.121l7,11.03l-22.802,8.59L264.677,239l-17.926-7.979l7.212-13.893
							l9.227-1.485C263.19,215.643,277.401,218.931,285.673,216.598z"/>
						<path style="fill:#FAD2D0;" d="M267.326,209.068c0,0,1.061,2.969,0.742,5.409l-4.878,1.167c0,0,2.333,8.59,11.136,10.499
							c0,0,8.484-2.651,11.348-9.545l-7.424-1.697l0.742-5.091L267.326,209.068z"/>
						<path style="fill:#FD9A9F;" d="M278.991,209.821c-0.008-0.004-0.016-0.008-0.023-0.012l-11.642-0.741
							c0,0,0.547,1.539,0.737,3.31l4.778,3.584l5.651-2.723L278.991,209.821z"/>
						<path style="fill:#1E1007;" d="M264.463,188.175c0,0-2.439,1.379-2.439,5.621c0,4.242,1.485,12.09,1.803,13.045
							c0.318,0.954,8.272,4.985,8.272,4.985l10.818-3.924c0,0,2.333-5.409,1.697-12.514
							C283.977,188.281,270.508,184.994,264.463,188.175z"/>
						<path style="fill:#FAD2D0;" d="M263.438,196.518c0,0-4.101-1.697-3.394,1.98c0.707,3.676,4.384,5.515,4.384,5.515
							L263.438,196.518z"/>
						<path style="fill:#FAD2D0;" d="M283.8,196.66c0,0,2.969-1.273,3.252,1.273c0.283,2.545-3.959,6.08-3.959,6.08L283.8,196.66z"
							/>
						<path style="fill:#FAD2D0;" d="M262.872,192.7c0,0-0.141,12.727,2.828,15.979c2.969,3.252,8.201,4.666,8.201,4.666
							s6.222-0.566,8.06-4.525c1.838-3.959,2.828-13.292,2.828-15.979c0-2.687-4.384-10.464-11.878-9.333
							C265.417,184.64,263.155,190.155,262.872,192.7z"/>
						<path style="fill:#1E1007;" d="M283.376,198.781c0,0-0.848-7.777-3.111-9.898l1.273-3.111c0,0,2.545,1.131,4.101,2.262
							c1.555,1.131-0.566,10.181-0.566,10.181l-1.838,3.252L283.376,198.781z"/>
						<path style="fill:#1E1007;" d="M280.265,188.883c0,0-7.212,2.545-11.171,2.262c-3.959-0.283-4.525,2.687-4.525,2.687
							s0.283,5.798-0.566,7.636c0,0-2.121-5.515-1.273-10.747c0.848-5.232,4.949-7.919,8.06-8.909
							c3.111-0.99,9.616-2.687,11.595-1.131C284.365,182.236,281.679,186.903,280.265,188.883z"/>
						<path style="fill:#FFFFFF;" d="M270.614,184.251c0,0,4.136-2.651,10.181-2.439
							C280.795,181.812,273.477,183.615,270.614,184.251z"/>
					</g>
				</g>
				<g>
					<path style="fill:#F1CF6D;" d="M261.613,180.427l-11.791-11.39H228.8v-22.465h39.304v22.368h-8.29L261.613,180.427z
						 M229.201,168.637h20.784l11.048,10.674l-1.686-10.771h8.357v-21.567h-38.503V168.637z"/>
					<g>
						<rect x="246.803" y="151.422" style="fill:#F1CF6D;" width="14.387" height="1.145"/>
						<rect x="233.255" y="151.422" style="fill:#F1CF6D;" width="10.548" height="1.145"/>
						<rect x="233.255" y="154.906" style="fill:#F1CF6D;" width="30.452" height="1.145"/>
						<rect x="233.255" y="158.39" style="fill:#F1CF6D;" width="21.097" height="1.145"/>
						<rect x="233.255" y="161.874" style="fill:#F1CF6D;" width="30.452" height="1.145"/>
					</g>
				</g>
			</g>
		</g>
		<g>
			<g>
				<path style="fill:#FFFFFF;" d="M359.064,163.714c-20.139,0-36.522-16.384-36.522-36.523s16.384-36.522,36.522-36.522
					c20.139,0,36.522,16.384,36.522,36.523S379.203,163.714,359.064,163.714z M359.064,91.069
					c-19.918,0-36.122,16.204-36.122,36.122s16.204,36.123,36.122,36.123c19.918,0,36.122-16.204,36.122-36.122
					S378.982,91.069,359.064,91.069z"/>
			</g>
			
				<ellipse transform="matrix(0.974 -0.2264 0.2264 0.974 -19.0336 84.9424)" style="fill:#FFFFFF;" cx="360.804" cy="125.452" rx="34.583" ry="34.583"/>
			<g>
				
					<rect x="344.532" y="115.779" transform="matrix(1 -0.0041 0.0041 1 -0.525 1.4995)" style="fill:#572FBD;" width="33.161" height="23"/>
				<path style="fill:#572FBD;" d="M346.969,140.924l-0.098-23.399l33.562-0.139l0.098,23.4L346.969,140.924z M347.274,117.923
					l0.094,22.6l32.761-0.136l-0.094-22.6L347.274,117.923z"/>
				<path style="fill:#572FBD;" d="M339.74,135.001l-0.098-23.399l33.561-0.139l0.098,23.399L339.74,135.001z M340.044,112
					l0.094,22.6l32.761-0.136l-0.094-22.6L340.044,112z"/>
				<polygon style="fill:#1F0E47;" points="346.526,118.194 361.113,127.279 375.942,117.298 361.121,129.166 				"/>
			</g>
		</g>
		<g>
			<g>
				<path style="fill:#FFFFFF;" d="M275.451,109.265c-20.139,0-36.523-16.384-36.523-36.523s16.384-36.522,36.523-36.522
					c20.139,0,36.523,16.384,36.523,36.522S295.59,109.265,275.451,109.265z M275.451,36.62c-19.918,0-36.122,16.204-36.122,36.122
					s16.204,36.123,36.122,36.123c19.918,0,36.123-16.205,36.123-36.123S295.369,36.62,275.451,36.62z"/>
			</g>
			<circle style="fill:#FFFFFF;" cx="273.712" cy="71.002" r="34.583"/>
			<g>
				<polygon style="fill:#F1CF6D;" points="277.064,90.869 267.871,53.903 297.097,78.968 				"/>
				<polygon style="fill:#F1CF6D;" points="265.788,53.903 266.742,78.355 250.395,63.436 				"/>
				<path style="fill:#1E1007;" d="M274.062,77.306c0-0.502-0.052-0.991-0.138-1.469l2.203-2.396l-0.911-1.578l-0.911-1.578
					l-3.174,0.709c-0.746-0.632-1.607-1.129-2.546-1.467l-0.974-3.108h-1.823h-1.823l-0.974,3.108
					c-0.938,0.338-1.799,0.834-2.546,1.467l-3.174-0.709l-0.911,1.578l-0.911,1.578l2.203,2.396
					c-0.086,0.478-0.138,0.967-0.138,1.469c0,0.502,0.052,0.991,0.138,1.469l-2.203,2.396l0.911,1.578l0.911,1.578l3.174-0.71
					c0.746,0.632,1.608,1.129,2.546,1.467l0.974,3.108h1.823h1.823l0.974-3.108c0.939-0.338,1.8-0.834,2.546-1.467l3.175,0.71
					l0.911-1.578l0.911-1.578l-2.203-2.396C274.01,78.298,274.062,77.809,274.062,77.306z M265.788,80.968
					c-2.022,0-3.661-1.639-3.661-3.661c0-2.022,1.639-3.661,3.661-3.661c2.022,0,3.661,1.639,3.661,3.661
					C269.449,79.328,267.81,80.968,265.788,80.968z"/>
				<path style="fill:#1E1007;" d="M286.278,56.897c-0.397-0.308-0.815-0.566-1.245-0.791l-0.543-3.21l-1.806-0.247l-1.806-0.247
					l-1.385,2.943c-0.957,0.202-1.877,0.578-2.719,1.113l-3.053-1.135l-1.117,1.44l-1.117,1.44l1.859,2.674
					c-0.308,0.948-0.444,1.933-0.401,2.911l-2.506,2.074l0.689,1.688l0.689,1.687l3.244-0.273c0.325,0.36,0.679,0.701,1.076,1.009
					c0.397,0.308,0.815,0.566,1.245,0.791l0.543,3.21l1.806,0.247l1.806,0.247l1.385-2.943c0.957-0.202,1.877-0.578,2.719-1.113
					l3.053,1.135l1.117-1.44l1.117-1.44l-1.859-2.674c0.308-0.949,0.444-1.933,0.401-2.911l2.506-2.074l-0.689-1.687l-0.689-1.688
					l-3.244,0.273C287.029,57.546,286.675,57.205,286.278,56.897z M284.1,65.679c-1.239,1.598-3.539,1.889-5.137,0.649
					c-1.598-1.239-1.889-3.539-0.65-5.137s3.539-1.889,5.137-0.649C285.049,61.782,285.34,64.081,284.1,65.679z"/>
			</g>
		</g>
	</g>
</g>
</svg>
